<svg width="22" height="20" viewBox="0 0 22 20" fill="none" xmlns="http://www.w3.org/2000/svg">
<path d="M10 10H12V12H10V10Z" fill="black"/>
<path fill-rule="evenodd" clip-rule="evenodd" d="M2 12H3H4V13H5H6V14H7H8H9H10H11H12H13H14H15H16V13H17H18V12H20V13H19V14H18V15H17H16V16H15H14H13H12H11H10H9H8H7H6V15H5H4V14H3V13H2V12Z" fill="black"/>
<path fill-rule="evenodd" clip-rule="evenodd" d="M6 4H2V5H1V6H0V18H1V19H2V20H20V19H21V18H22V6H21V5H20V4H16H14H8H6ZM20 13V12V6H2V12V13V18H20V13Z" fill="black"/>
<path d="M8 0H14V1H15V2H16V4H14V2H8V4H6V2H7V1H8V0Z" fill="black"/>
</svg>
