<svg width="20" height="14" viewBox="0 0 20 14" fill="none" xmlns="http://www.w3.org/2000/svg">
<path d="M7 0H8V1H7V0Z" fill="black"/>
<path d="M12 0H13V1H12V0Z" fill="black"/>
<path d="M12 13H13V14H12V13Z" fill="black"/>
<path d="M7 13H8V14H7V13Z" fill="black"/>
<path d="M17 4V3H16V2H15V1H14H13V2H14V3H15V4H16V5H17V6H18V7V8H17V9H16V10H15V11H14V12H13V13H14H15V12H16V11H17V10H18V9H19V8H20V7V6H19V5H18V4H17Z" fill="black"/>
<path d="M5 11V10H4V9H3V8H2V7V6H3V5H4V4H5V3H6V2H7V1H6H5V2H4V3H3V4H2V5H1V6H0V7V8H1V9H2V10H3V11H4V12H5V13H6H7V12H6V11H5Z" fill="black"/>
</svg>
