<svg width="21" height="21" viewBox="0 0 21 21" fill="none" xmlns="http://www.w3.org/2000/svg">
<path fill-rule="evenodd" clip-rule="evenodd" d="M9 1H10V0H11H12V1H13V5H14V7H15V8H20V9H21V10V11H20V12H15V13H14V15H13V19H12V20H11H10V19H9V15H8V13H7V12H2V11H1V10V9H2V8H7V7H8V5H9V1ZM11 17H10V14H9V12H8V11H7H4V10V9H7H8V8H9V6H10V3H11H12V6H13V8H14V9H15H18V10V11H15H14V12H13V14H12V17H11Z" fill="black"/>
<path fill-rule="evenodd" clip-rule="evenodd" d="M5 19H6V17H5V16H4V15H2V16H1V17H0V19H1V20H2V21H4V20H5V19ZM4 17H2V19H4V17Z" fill="black"/>
<path d="M20 0H18V1H17V3H18V4H20V3H21V1H20V0Z" fill="black"/>
</svg>
