<svg width="16" height="16" viewBox="0 0 16 16" fill="none" xmlns="http://www.w3.org/2000/svg">
<path d="M14.6668 13.3333H1.3335V15.3333H14.6668V13.3333Z" fill="white"/>
<path d="M13.3332 5.33342V6.66675H12.6665V7.33342H11.9998V8.00008H11.3332V8.66675H10.6665V9.33342H9.99984V10.0001H9.33317V10.6667H8.6665V11.3334H7.33317V10.6667H6.6665V10.0001H5.99984V9.33342H5.33317V8.66675H4.6665V8.00008H3.99984V7.33342H3.33317V6.66675H2.6665V5.33342H3.33317V4.66675H4.6665V5.33342H5.33317V6.00008H5.99984V6.66675H6.6665V0.666748H9.33317V6.66675H9.99984V6.00008H10.6665V5.33342H11.3332V4.66675H12.6665V5.33342H13.3332Z" fill="white"/>
</svg>